<svg id="svg" version="1.1" xmlns="http://www.w3.org/2000/svg" style="display: block;" viewBox="0 0 512 512"><path d="M0 0 C168.96 0 337.92 0 512 0 C512 168.96 512 337.92 512 512 C343.04 512 174.08 512 0 512 C0 343.04 0 174.08 0 0 Z " transform="translate(0,0)" style="fill: #393A55;"/><path d="M0 0 C168.96 0 337.92 0 512 0 C512 129.36 512 258.72 512 392 C511.67 392 511.34 392 511 392 C510.72969971 390.9076001 510.45939941 389.8152002 510.1809082 388.68969727 C507.06334014 376.34460981 503.28652389 364.27991767 499.27175903 352.20025635 C497.38030688 346.50849143 495.50763859 340.81053975 493.6328125 335.11328125 C493.2480928 333.94569275 492.86337311 332.77810425 492.46699524 331.57513428 C488.77035636 320.34014035 485.16543307 309.0766231 481.5765686 297.80682373 C479.6087156 291.63232887 477.63042773 285.46117007 475.65281677 279.28979492 C474.25109274 274.91418097 472.85193614 270.53783657 471.46435547 266.15771484 C460.44122865 231.39445497 444.03593502 202.5815782 410.4375 185.125 C395.67520014 177.72709489 380.25224732 174.3380426 364 172 C363.97421875 171.29875 363.9484375 170.5975 363.921875 169.875 C363.5230575 163.20387098 362.27239834 158.80586802 359 153 C359 152.34 359 151.68 359 151 C353.6426632 148.22212166 349.48411909 146.75125184 343.3737793 146.68115234 C342.72931351 146.67110672 342.08484772 146.6610611 341.42085266 146.65071106 C339.30531652 146.61999064 337.18990628 146.60287552 335.07421875 146.5859375 C333.60161769 146.56721683 332.12902725 146.54764274 330.65644836 146.5272522 C326.79155758 146.47601977 322.92663205 146.43634672 319.06158447 146.39910889 C315.11323515 146.3590133 311.16502924 146.30794636 307.21679688 146.2578125 C299.47796314 146.16115856 291.73905975 146.07672037 284 146 C283.88100342 145.31292969 283.76200684 144.62585938 283.6394043 143.91796875 C283.39057495 142.56638672 283.39057495 142.56638672 283.13671875 141.1875 C282.97647217 140.29417969 282.81622559 139.40085938 282.65112305 138.48046875 C281.68296563 134.79225001 280.07420425 133.1861008 277 131 C274.69 130.34 272.38 129.68 270 129 C270 122.07 270 115.14 270 108 C271.577742 107.99635437 273.15548401 107.99270874 274.78103638 107.98895264 C289.64261279 107.95202727 304.50394787 107.8945186 319.36535835 107.81609726 C327.00594556 107.77630699 334.64642977 107.7439145 342.28710938 107.72900391 C348.94761891 107.71598725 355.60790182 107.6890225 362.26828372 107.64538693 C365.79416848 107.62277208 369.31977374 107.60708931 372.84573746 107.60811615 C376.78427324 107.60900158 380.72223853 107.57874342 384.66064453 107.54589844 C385.82661667 107.5509288 386.99258881 107.55595917 388.19389343 107.56114197 C394.4092235 107.4808401 398.30561851 107.24012247 403 103 C405.73462405 99.00080992 405.66487596 94.67845648 405 90 C402.92258371 85.91936086 401.24800904 83.66224077 397 82 C394.47075813 81.69121453 394.47075813 81.69121453 391.6975708 81.7215271 C390.62347458 81.71036362 389.54937836 81.69920013 388.44273376 81.68769836 C387.26957108 81.68553818 386.09640839 81.68337799 384.88769531 81.68115234 C383.64840775 81.67110672 382.40912018 81.6610611 381.13227844 81.65071106 C377.73795894 81.62512023 374.34380655 81.60826446 370.94942951 81.59528303 C367.40062517 81.57964857 363.85190549 81.55285936 360.30316162 81.5272522 C353.58491769 81.48046997 346.86665782 81.4437232 340.14833426 81.41057932 C332.4989998 81.37235399 324.84975038 81.32294492 317.20048761 81.27259517 C301.46705322 81.1692836 285.73357113 81.08002071 270 81 C269.93651367 79.835896 269.87302734 78.67179199 269.80761719 77.47241211 C269.72081848 75.92821617 269.63389799 74.38402707 269.546875 72.83984375 C269.50546387 72.07458374 269.46405273 71.30932373 269.42138672 70.52087402 C268.73634739 58.49714129 266.17930245 47.73463814 257.79296875 38.59375 C249.66251803 31.36668269 239.92551242 27.41671911 229.125 27.5625 C228.33488525 27.57007324 227.54477051 27.57764648 226.73071289 27.58544922 C220.47355963 27.76167082 215.4661109 28.832813 210 32 C209.22398437 32.42410156 208.44796875 32.84820312 207.6484375 33.28515625 C198.41521141 38.82817994 193.1762996 46.84282216 190 57 C187.61401311 66.7427798 188.54034708 77.80030196 193.46484375 86.625 C194.4754727 88.12735306 195.51655813 89.61003229 196.59765625 91.0625 C198 93 198 93 198.93359375 95.125 C200.28621554 97.50323612 201.51743088 97.93604181 204 99 C205.85486292 100.20347637 207.68596604 101.43645217 209.51171875 102.68359375 C216.83355055 106.55715311 223.86941187 107.48643065 232.0625 107.6875 C235.341875 107.790625 238.62125 107.89375 242 108 C242 114.93 242 121.86 242 129 C239.03 129.99 236.06 130.98 233 132 C229.94865093 135.28020025 228.87242458 137.85457438 228.40625 142.20703125 C228.2721875 143.45871094 228.138125 144.71039063 228 146 C226.77970596 146.00879936 226.77970596 146.00879936 225.53475952 146.01777649 C217.85459591 146.07576616 210.17475439 146.14787845 202.49487877 146.23571491 C198.54689972 146.28037444 194.59902282 146.31964004 190.65087891 146.34643555 C186.83813174 146.37251299 183.02577855 146.41294611 179.21327591 146.46318626 C177.76133768 146.4798251 176.30933134 146.49135794 174.85731125 146.49761391 C172.81770629 146.50728805 170.77910243 146.53538366 168.73974609 146.56762695 C167.58058685 146.57873001 166.42142761 146.58983307 165.22714233 146.60127258 C161.5908625 147.05055071 159.18470381 148.23226014 156 150 C155.01 150.33 154.02 150.66 153 151 C151.86454438 153.29534258 151.86454438 153.29534258 151 156 C150.66355469 156.76183594 150.32710937 157.52367187 149.98046875 158.30859375 C148.92011133 161.219296 148.59788196 163.72929953 148.375 166.8125 C148.26285156 168.27623047 148.26285156 168.27623047 148.1484375 169.76953125 C148.07496094 170.87361328 148.07496094 170.87361328 148 172 C147.42781738 172.08975098 146.85563477 172.17950195 146.26611328 172.27197266 C120.70835336 176.36917394 97.78498687 183.71678271 78 201 C77.49662109 201.43618652 76.99324219 201.87237305 76.47460938 202.32177734 C69.90583582 208.13375061 64.60154233 214.55426484 59.6875 221.8125 C59.22013428 222.49828125 58.75276855 223.1840625 58.27124023 223.890625 C48.11098677 239.51351518 43.09242839 257.25162651 37.51546478 274.848526 C36.32531973 278.59686483 35.12442628 282.34175625 33.92431641 286.08691406 C32.43767547 290.72836277 30.95211169 295.37014434 29.47149658 300.01351929 C26.32898396 309.86710173 23.15662207 319.71047856 19.9550457 329.54502678 C19.2592612 331.68276612 18.56429597 333.82076991 17.86964417 335.95887756 C17.6442908 336.65249484 17.41893744 337.34611212 17.18675518 338.0607481 C16.73830903 339.44110941 16.28987911 340.821476 15.84146595 342.20184803 C14.76096217 345.52713666 13.67892687 348.85191043 12.59341431 352.17556763 C8.2914938 365.35332758 4.01976833 378.45949499 1 392 C0.67 392 0.34 392 0 392 C0 262.64 0 133.28 0 0 Z " transform="translate(0,0)" style="fill: #000000;"/><path d="M0 0 C3.90728535 -0.05962204 7.80656513 -0.02400657 11.71337891 0.05078125 C13.35869693 0.06671268 15.00455 0.01573338 16.6484375 -0.0546875 C18.91796875 -0.0546875 18.91796875 -0.0546875 22.73046875 1.0703125 C25.52330413 4.1240497 27.56769926 7.55581208 29.73046875 11.0703125 C36.25755794 20.27817046 46.46148318 27.18996141 57.5234375 29.66796875 C68.468909 31.04115214 79.09282882 31.24495863 89.3828125 26.84765625 C92.14890565 25.93176184 93.06278172 25.95160504 95.73046875 27.0703125 C104.46339362 32.2858093 111.83628138 38.71702625 119.20800781 45.64990234 C139.75839278 64.82279198 160.6561562 73.19647988 188.98046875 72.24072266 C207.45311825 71.0960219 226.99814553 60.84576949 239.66015625 47.54296875 C249.97272852 35.22625508 257.53476667 21.15950877 259.73046875 5.0703125 C260.06046875 5.0703125 260.39046875 5.0703125 260.73046875 5.0703125 C260.73046875 36.4203125 260.73046875 67.7703125 260.73046875 100.0703125 C91.77046875 100.0703125 -77.18953125 100.0703125 -251.26953125 100.0703125 C-251.26953125 68.7203125 -251.26953125 37.3703125 -251.26953125 5.0703125 C-250.93953125 5.0703125 -250.60953125 5.0703125 -250.26953125 5.0703125 C-250.07359375 6.0396875 -249.87765625 7.0090625 -249.67578125 8.0078125 C-246.45388726 22.85020349 -240.59943897 35.77065834 -230.26953125 47.0703125 C-229.74101562 47.67875 -229.2125 48.2871875 -228.66796875 48.9140625 C-219.4749226 58.87696966 -207.93121893 64.85425427 -195.26953125 69.0703125 C-194.25761719 69.410625 -193.24570313 69.7509375 -192.203125 70.1015625 C-171.58807395 75.90710491 -149.31219146 72.26442221 -130.78515625 62.1328125 C-123.30469042 57.84242892 -117.2201468 52.17348291 -110.92749023 46.33984375 C-92.20018411 29.01018636 -92.20018411 29.01018636 -85.26953125 26.0703125 C-81.9897736 26.40906681 -79.20381785 27.46441337 -76.14453125 28.6328125 C-62.75533295 32.67558986 -47.67445901 30.81049668 -35.34765625 24.59765625 C-26.98429066 19.71132525 -20.29575588 13.0984021 -15.76953125 4.5078125 C-13.80421388 1.26275358 -13.53791583 1.14309476 -9.58203125 0.0703125 C-6.38782722 -0.00484524 -3.19556046 0.0598081 0 0 Z " transform="translate(251.26953125,411.9296875)" style="fill: #000000;"/><path d="M0 0 C10.65367035 6.28375167 18.06535529 14.52877349 21.609375 26.5390625 C22.56492915 31.90334582 22.73229222 37.05295525 22.671875 42.4765625 C22.66736328 43.25580078 22.66285156 44.03503906 22.65820312 44.83789062 C22.64654408 46.73831518 22.62861377 48.63869956 22.609375 50.5390625 C23.25836824 50.53537533 23.90736149 50.53168816 24.57602119 50.52788925 C40.37555863 50.43950913 56.17500995 50.37333886 71.97473335 50.33181381 C79.6154074 50.31119826 87.25591632 50.28309712 94.89648438 50.23730469 C101.55687696 50.19740583 108.21714995 50.17162236 114.87765872 50.16270852 C118.40362726 50.15749885 121.92925369 50.14527585 125.45511246 50.11614227 C129.3934795 50.08386489 133.33151341 50.08310506 137.27001953 50.08496094 C139.01897774 50.06338928 139.01897774 50.06338928 140.80326843 50.04138184 C147.04971799 50.07327785 150.88609723 50.29423833 155.609375 54.5390625 C158.77143248 58.22812956 159.13321284 61.61796982 158.9609375 66.32421875 C158.4035413 69.83581483 156.93164046 71.90297738 154.609375 74.5390625 C151.0149549 77.0981617 148.58071789 77.9128647 144.18669128 77.89982605 C142.57348495 77.90601204 142.57348495 77.90601204 140.9276886 77.912323 C139.75812119 77.90153717 138.58855377 77.89075134 137.38354492 77.87963867 C135.52439453 77.88029579 135.52439453 77.88029579 133.62768555 77.88096619 C130.23737784 77.87923652 126.84762084 77.86421056 123.45741057 77.84324431 C119.91134631 77.82446699 116.3652744 77.82272625 112.81916809 77.81916809 C106.10793828 77.8098507 99.39685539 77.78524115 92.68569022 77.75511962 C85.04366063 77.72156601 77.40162395 77.7050872 69.75953901 77.69003332 C54.04273031 77.65869125 38.32607739 77.6053312 22.609375 77.5390625 C22.609375 84.4690625 22.609375 91.3990625 22.609375 98.5390625 C13.369375 98.5390625 4.129375 98.5390625 -5.390625 98.5390625 C-5.390625 91.6090625 -5.390625 84.6790625 -5.390625 77.5390625 C-8.5875 77.6421875 -11.784375 77.7453125 -15.078125 77.8515625 C-27.45959751 77.99584421 -38.215651 75.46209214 -47.390625 66.5390625 C-55.36222224 57.60121105 -59.99465498 47.06998669 -59.63671875 34.984375 C-58.35962608 22.29453354 -53.50061393 12.40364991 -43.69140625 4.2265625 C-40.43961411 1.84154687 -37.14335497 0.0053129 -33.390625 -1.4609375 C-32.49988281 -1.81542969 -31.60914063 -2.16992188 -30.69140625 -2.53515625 C-20.75173508 -5.32296935 -9.22548489 -4.56177292 0 0 Z " transform="translate(247.390625,30.4609375)" style="fill: #3A3B56;"/><path d="M0 0 C0.77633789 -0.00287018 1.55267578 -0.00574036 2.35253906 -0.00869751 C3.98633559 -0.0107299 5.62015691 -0.00525797 7.25390625 0.00732422 C9.74274538 0.02339067 12.22996087 0.00744846 14.71875 -0.01171875 C16.31250355 -0.00973617 17.9062561 -0.00589219 19.5 0 C20.23766602 -0.00607269 20.97533203 -0.01214539 21.73535156 -0.0184021 C26.47825506 0.04558621 29.72588427 0.88709673 33.75 3.3984375 C38.01387066 8.22334378 37.91319946 11.30356538 37.75 17.3984375 C38.56352936 17.39177567 39.37705872 17.38511383 40.21524048 17.37825012 C47.89518083 17.31805116 55.57500621 17.27241861 63.25512123 17.24300098 C67.20322387 17.22736846 71.15113097 17.2061747 75.09912109 17.17211914 C78.91167489 17.13943899 82.724041 17.12156633 86.53672409 17.11380577 C87.98874235 17.10827773 89.44075074 17.09748276 90.89268875 17.08124733 C92.93210005 17.05935704 94.97074336 17.05647527 97.01025391 17.05786133 C98.16941315 17.05119949 99.32857239 17.04453766 100.52285767 17.03767395 C106.6988133 17.72808653 110.8166057 20.72088752 114.75 25.3984375 C118.76976177 32.19044876 117.75 35.52577138 117.75 44.3984375 C46.47 44.3984375 -24.81 44.3984375 -98.25 44.3984375 C-98.25 29.28645833 -98.25 29.28645833 -93.25 22.3984375 C-88.66695047 18.07891331 -83.96653068 17.27326316 -77.85083008 17.28491211 C-77.20665634 17.28476608 -76.5624826 17.28462006 -75.89878845 17.2844696 C-73.77233498 17.28516555 -71.6459694 17.29294302 -69.51953125 17.30078125 C-68.04408313 17.30264656 -66.56863439 17.30406993 -65.09318542 17.30506897 C-61.21174405 17.30888524 -57.33034015 17.31870794 -53.44891357 17.32977295 C-49.48743192 17.34000619 -45.52594419 17.34457069 -41.56445312 17.34960938 C-33.79295167 17.360331 -26.02148109 17.37739675 -18.25 17.3984375 C-18.28351563 16.14675781 -18.31703125 14.89507812 -18.3515625 13.60546875 C-18.47140891 9.12966623 -17.2596348 6.80407688 -14.25 3.3984375 C-9.52928769 0.45236982 -5.44207754 -0.04480085 0 0 Z " transform="translate(246.25,128.6015625)" style="fill: #DFEFFC;"/><path d="M0 0 C3.38904974 2.54178731 5.4630753 5.08029221 7 9 C7.22705078 12.20800781 7.22705078 12.20800781 7.1953125 15.953125 C7.1924826 16.61334656 7.18965271 17.27356812 7.18673706 17.95379639 C7.17558415 20.05271897 7.15048946 22.15120742 7.125 24.25 C7.11496384 25.67707715 7.1058391 27.10416102 7.09765625 28.53125 C7.07566111 32.02097328 7.04116536 35.51044423 7 39 C8.3614917 38.9685791 8.3614917 38.9685791 9.75048828 38.93652344 C13.13877642 38.86809067 16.5263235 38.81807705 19.91503906 38.78027344 C21.37772252 38.76023668 22.84032666 38.73299896 24.30273438 38.69824219 C26.4129601 38.64936775 28.52212136 38.62695341 30.6328125 38.609375 C31.90012207 38.58842773 33.16743164 38.56748047 34.47314453 38.54589844 C38.65357099 39.08415077 40.75089643 40.36237331 44 43 C46.6893186 47.0339779 46.7926321 50.26038359 46 55 C44.31925307 58.29204151 42.07182119 60.45286036 38.7512207 62.14794922 C35.4344746 63.17514275 32.63921023 63.22589613 29.16796875 63.1953125 C27.87568359 63.18886719 26.58339844 63.18242187 25.25195312 63.17578125 C23.8971327 63.15907327 22.54231499 63.14214342 21.1875 63.125 C19.81315749 63.11496003 18.43880797 63.10583596 17.06445312 63.09765625 C13.70945683 63.07411242 10.35481801 63.04122567 7 63 C7.01571045 63.8470752 7.0314209 64.69415039 7.04760742 65.56689453 C7.0989557 68.73142204 7.13645672 71.89573608 7.16479492 75.06054688 C7.17981428 76.42617816 7.20023608 77.79176176 7.22631836 79.15722656 C7.26300137 81.12803905 7.27818551 83.09921408 7.29296875 85.0703125 C7.3086792 86.25383301 7.32438965 87.43735352 7.34057617 88.65673828 C6.84620193 93.50975681 5.1020002 96.76835272 1.875 100.375 C-2.12263442 102.6345325 -5.5101988 102.94522131 -10 102 C-13.82090844 99.15464265 -15.56910265 96.47896975 -17 92 C-17.22705078 88.6784668 -17.22705078 88.6784668 -17.1953125 84.94921875 C-17.1924826 84.29041214 -17.18965271 83.63160553 -17.18673706 82.95283508 C-17.17560924 80.86419938 -17.15051948 78.77600444 -17.125 76.6875 C-17.11496059 75.26498018 -17.10583642 73.8424536 -17.09765625 72.41992188 C-17.07569447 68.94647319 -17.04121646 65.47327967 -17 62 C-18.46022583 62.03927612 -18.46022583 62.03927612 -19.94995117 62.0793457 C-23.57455302 62.17010021 -27.19905527 62.22733901 -30.82446289 62.2746582 C-32.39104114 62.29974547 -33.95750299 62.33382415 -35.52368164 62.37719727 C-37.78040309 62.43811226 -40.03557294 62.46626499 -42.29296875 62.48828125 C-42.98899704 62.51408768 -43.68502533 62.5398941 -44.40214539 62.56648254 C-48.36082639 62.56874667 -49.85018571 62.12665992 -52.91918945 59.53198242 C-53.60585693 58.69642822 -54.29252441 57.86087402 -55 57 C-55.33 56.67 -55.66 56.34 -56 56 C-56.54396172 51.18460113 -56.72490311 47.24269105 -54.25 43 C-49.84623404 39.08554137 -46.71616029 38.75642492 -40.828125 38.8046875 C-39.8044986 38.80893234 -39.8044986 38.80893234 -38.76019287 38.81326294 C-36.58994693 38.82441902 -34.42012029 38.84951443 -32.25 38.875 C-30.77474556 38.88503574 -29.29948463 38.89416056 -27.82421875 38.90234375 C-24.21601058 38.92434313 -20.60804625 38.95884117 -17 39 C-17.02094727 38.09233887 -17.04189453 37.18467773 -17.06347656 36.24951172 C-17.13190933 32.86122358 -17.18192295 29.4736765 -17.21972656 26.08496094 C-17.23976332 24.62227748 -17.26700104 23.15967334 -17.30175781 21.69726562 C-17.35063225 19.5870399 -17.37304659 17.47787864 -17.390625 15.3671875 C-17.41157227 14.09987793 -17.43251953 12.83256836 -17.45410156 11.52685547 C-16.91584923 7.34642901 -15.63762669 5.24910357 -13 2 C-8.76668568 -0.82220955 -4.97131405 -0.78619823 0 0 Z " transform="translate(154,220)" style="fill: #D3E8FC;"/><path d="M0 0 C4.63493497 3.13031056 8.00473433 6.50392809 11.140625 11.12109375 C11.59179688 11.77335937 12.04296875 12.425625 12.5078125 13.09765625 C16.89562269 20.93519308 16.2977124 31.55984245 14.515625 40.125 C11.61911336 48.3878167 5.8659103 54.99390518 -1.859375 59.05859375 C-11.3393621 63.26225775 -19.47352969 64.52491091 -29.359375 61.05859375 C-39.5115573 56.88726885 -45.76499579 50.20314944 -50.671875 40.55859375 C-53.83253574 31.11315097 -52.4795984 21.49320225 -48.26171875 12.671875 C-43.77023547 4.50212965 -36.52562797 -0.62895985 -27.91796875 -4.046875 C-17.72978791 -6.81837247 -9.02609293 -5.02911232 0 0 Z " transform="translate(208.859375,362.87890625)" style="fill: #CEE5FD;"/><path d="M0 0 C8.44569871 5.84878999 14.16742289 13.14068655 17 23 C18.69067183 35.08905164 15.24902329 43.60015741 8.3984375 53.2578125 C2.8844919 59.53230232 -4.93430547 62.69237556 -13.1328125 63.515625 C-23.77266646 64.14086464 -32.12211221 62.08384035 -40.37109375 54.94921875 C-48.21903499 46.84207945 -50.67832004 38.44898249 -50.61157227 27.40283203 C-50.21191566 18.59866078 -46.62008718 11.57397438 -40.75 5.0625 C-29.05184265 -5.61729098 -14.03665912 -6.48782385 0 0 Z " transform="translate(338,362)" style="fill: #D3E8FD;"/><path d="M0 0 C5.67549553 2.04317839 9.29873721 5.59747441 12 11 C12.61150944 16.91125789 11.91510741 20.41190035 8.4765625 25.30078125 C5.70484058 28.49046123 2.99173685 29.67957433 -1.13671875 30.34375 C-6.26613855 30.69209769 -9.58754508 29.76971324 -13.55859375 26.48046875 C-16.86742263 23.08196971 -18.15387679 19.65319323 -18.4375 15 C-18.25901024 10.74869845 -16.75060628 8.27099125 -14 5 C-9.13691505 0.71585374 -6.54615737 -0.43641049 0 0 Z " transform="translate(411,255)" style="fill: #F75F5A;"/><path d="M0 0 C4.34333001 2.321435 7.12783526 5.45455817 9 10 C9.45334816 15.62151717 9.18933562 19.16100802 6 24 C1.30107098 28.34650935 -2.4753557 29.3747913 -8.71875 29.2734375 C-12.97191861 28.76363989 -15.59859954 26.72446474 -18.25390625 23.45703125 C-21.23478037 18.91820898 -21.68061657 15.35985552 -21 10 C-16.20457525 0.76436715 -10.1170601 -1.79323552 0 0 Z " transform="translate(325,256)" style="fill: #FBCE4E;"/><path d="M0 0 C3.5677811 2.35149209 5.84221079 4.99692157 7.75 8.8125 C8.33423767 14.43016986 8.1622699 19.12062889 4.75 23.8125 C1.11630654 26.97005431 -2.50170138 29.10374154 -7.375 29.375 C-13.04027616 28.5526212 -15.79505812 26.38230571 -19.625 22.25 C-21.93105331 17.37181031 -22.27898713 13.11101582 -21.25 7.8125 C-16.64014741 -0.54471664 -8.92267964 -3.26020987 0 0 Z " transform="translate(370.25,212.1875)" style="fill: #BCD640;"/><path d="M0 0 C6.79494501 5.82423858 6.79494501 5.82423858 7.640625 10.2421875 C7.89646519 16.25443198 6.87555104 20.11935523 3.1875 24.875 C-1.68604066 28.47213715 -6.9629729 28.72151693 -12.8125 27.875 C-16.5417443 26.11208451 -18.30445941 24.58625683 -20.6875 21.25 C-22.66454528 15.31886417 -22.90656538 10.10365171 -20.125 4.4375 C-14.5904624 -1.69536599 -7.76585141 -3.10634056 0 0 Z " transform="translate(370.8125,301.125)" style="fill: #04B6F6;"/><path d="M0 0 C4.60563994 2.6188933 8.30197811 4.90593432 10 10 C10.07973476 11.33525717 10.10771338 12.67412083 10.09765625 14.01171875 C10.09443359 14.76904297 10.09121094 15.52636719 10.08789062 16.30664062 C10.07951172 17.09232422 10.07113281 17.87800781 10.0625 18.6875 C10.05798828 19.48478516 10.05347656 20.28207031 10.04882812 21.10351562 C10.0370585 23.06904257 10.01912348 25.03453085 10 27 C-6.69507843 27.62519711 -6.69507843 27.62519711 -13.375 22 C-16.15265415 18.58134874 -16.29396923 15.30747285 -16.20703125 10.9921875 C-15.88841115 7.92622053 -15.00844654 6.33238953 -13 4 C-8.91419982 0.85310844 -5.2418502 -0.89222982 0 0 Z " transform="translate(232,54)" style="fill: #000000;"/><path d="M0 0 C1.68609375 -0.02900391 1.68609375 -0.02900391 3.40625 -0.05859375 C7.11861021 0.53669633 8.28859185 1.44277379 10.5 4.4375 C11.21863838 10.28926967 11.21863838 10.28926967 9.44140625 13.12890625 C6.47331922 15.12952829 3.45257076 14.87168693 0 14.8125 C-0.67675781 14.82410156 -1.35351562 14.83570313 -2.05078125 14.84765625 C-4.92380412 14.83065611 -7.00433173 14.76262647 -9.44140625 13.1640625 C-10.70220536 11.10770381 -10.93294549 9.84227965 -10.9375 7.4375 C-10.95683594 6.756875 -10.97617188 6.07625 -10.99609375 5.375 C-10.5 3.4375 -10.5 3.4375 -8.87890625 1.71484375 C-5.78780681 0.05509085 -3.49723734 0.00401059 0 0 Z " transform="translate(231.5,318.5625)" style="fill: #F9CD53;"/><path d="M0 0 C1.03125 0.01289063 2.0625 0.02578125 3.125 0.0390625 C5.93634014 0.36756148 7.64503994 0.83773441 10 2.375 C11.52491998 5.42483996 11.23562548 8.0173369 11 11.375 C9.953125 13.0703125 9.953125 13.0703125 8 14.375 C5.39557392 14.70055326 3.09906123 14.83972826 0.5 14.8125 C-0.17675781 14.83248047 -0.85351562 14.85246094 -1.55078125 14.87304688 C-4.79378501 14.86984865 -6.54108708 14.8099054 -8.94140625 12.53515625 C-10.39541542 9.5681191 -10.47589379 7.6382717 -10 4.375 C-6.98344758 0.4242434 -4.88667425 -0.13438354 0 0 Z " transform="translate(280,318.625)" style="fill: #F8635E;"/><path d="M0 0 C0.66 0.33 1.32 0.66 2 1 C-2.625 6.875 -2.625 6.875 -6 8 C-4.55746343 4.63408134 -2.66735273 2.48952921 0 0 Z " transform="translate(331,276)" style="fill: #EAB734;"/></svg>